PathFileType	4	(X/Y/Z)	D:\TRACE\spotREDO_2-26-24\spot_Both_Motion_3_4-v60.trc
DataRate	CameraRate	NumFrames	NumMarkers	Units	OrigDataRate	OrigDataStartFrame	OrigNumFrames
100.00	100.00	      38	9	mm	100.00	1751	      7000
Frame#	Time	front left toe			Front right toe			aft left toe			aft right toe			Arm			FL body			FR body			AL Body			AR Body			
		X1	Y1	Z1	X2	Y2	Z2	X3	Y3	Z3	X4	Y4	Z4	X5	Y5	Z5	X6	Y6	Z6	X7	Y7	Z7	X8	Y8	Z8	X9	Y9	Z9	

1751	17.500	-178.74628	21.01723	-397.47855	234.08258	22.73187	-476.94806	-122.14919	14.99078	157.17833	256.31372	26.25696	49.74316	33.52501	722.76355	-722.86865	-84.53797	582.30670	-486.96103	70.69654	587.51648	-498.95813	-25.76585	560.54224	394.72781	121.20808	554.88391	386.45105	
1752	17.510	-178.83942	21.02955	-397.44461	234.33168	23.15140	-476.64059	-122.15182	14.97099	157.10826	256.29486	26.26625	49.76563	33.58192	722.19049	-723.10461	-86.33796	583.39142	-488.56171	70.04780	587.85168	-499.35989	-26.96345	561.17645	393.94614	120.31206	555.48981	386.03595	
1753	17.520	-178.85066	20.95061	-397.48016	234.22281	23.06422	-476.79062	-122.18124	14.86294	157.02522	256.26462	26.31103	49.71397	33.19056	721.63757	-723.45074	-85.98391	583.01074	-488.16040	69.19723	588.11957	-499.96820	-27.94983	561.65466	393.51703	119.48067	555.86810	385.39832	
1754	17.530	-178.79790	20.82708	-397.62204	234.22751	22.96394	-476.74957	-122.24971	14.76835	156.92870	256.23636	26.34892	49.66475	32.27605	721.31897	-724.11090	-86.55757	583.16571	-488.96088	68.51275	588.17609	-500.77866	-28.88678	562.21002	392.85001	118.10972	556.56567	384.72168	
1755	17.540	-178.77176	20.65744	-397.68030	234.22368	22.89460	-476.90454	-122.28581	14.77500	156.87892	256.26569	26.40729	49.64766	31.48107	721.25671	-724.38251	-87.22433	583.15173	-489.89645	68.16791	588.18787	-501.42310	-29.65707	562.82269	391.88919	117.69863	556.87451	384.19824	
1756	17.550	-178.86151	20.65576	-397.69135	234.00655	22.76964	-477.18622	-122.27401	14.90325	156.71724	256.30869	26.37584	49.55315	30.86167	721.19141	-724.68958	-87.64954	582.90350	-490.67307	67.39941	588.00360	-502.45627	-30.00192	563.37061	391.10892	116.96689	557.67291	383.15442	
1757	17.560	-178.88173	20.54687	-397.72397	234.03615	22.79277	-477.21478	-122.22113	15.04794	156.61438	256.28979	26.38762	49.47150	30.57037	721.10309	-725.04950	-88.24366	582.88129	-491.64261	66.73559	587.96002	-503.34219	-30.09525	563.89240	390.17773	116.77454	558.15991	382.34134	
1758	17.570	-178.92426	20.38580	-397.74274	234.17838	22.91477	-477.19101	-122.18342	15.10935	156.56181	256.45227	26.32157	49.28043	30.27375	721.03168	-725.25970	-88.74762	582.57440	-492.60236	66.24596	587.78925	-504.36249	-30.51248	564.48694	389.40820	116.60677	558.48132	381.39948	
1759	17.580	-178.93338	20.12277	-397.80618	234.06561	22.93251	-477.24020	-122.14318	15.05783	156.52661	256.56229	26.13095	49.05314	30.01499	720.97845	-725.49567	-89.18011	582.18066	-493.24945	65.92829	587.52026	-505.35172	-30.74434	564.76508	388.38275	116.63368	559.07404	380.30032	
1760	17.590	-178.95680	20.04104	-397.85852	234.07530	22.95019	-477.20920	-122.15811	15.04159	156.47319	256.60233	26.08541	48.94690	30.10589	721.01947	-725.66241	-89.59291	582.08417	-494.21802	65.70690	587.42981	-506.19440	-30.75737	565.05109	387.54022	116.32621	559.45062	379.35629	
1761	17.600	-179.03903	20.05458	-397.91000	233.96887	22.93947	-477.31699	-122.13403	15.16593	156.38664	256.64215	26.04486	48.80920	30.49870	721.33722	-725.72015	-89.81197	582.06598	-495.32227	65.34480	587.20435	-507.23883	-30.47329	565.34290	386.26788	116.70324	559.72015	378.37561	
1762	17.610	-179.09229	20.07481	-397.94562	233.92990	22.94559	-477.32297	-122.16470	15.31663	156.35172	256.66943	25.97423	48.75357	30.78303	721.61694	-725.84814	-90.29331	582.29712	-496.33102	65.18310	587.37640	-508.20602	-30.43657	565.99408	385.61224	117.05200	560.12970	377.69580	
1763	17.620	-179.06435	20.17354	-397.99002	234.01289	23.06067	-477.33734	-122.12803	15.33801	156.29935	256.78415	25.99561	48.77450	31.22604	721.90747	-726.04779	-90.46600	582.59253	-497.14230	64.85618	587.41162	-509.34027	-30.48762	566.21106	384.46915	116.82345	560.28229	376.21320	
1764	17.630	-179.08905	20.22383	-398.08130	234.15652	22.96606	-477.32593	-122.08559	15.30190	156.23013	256.96545	25.90135	48.69504	31.73737	722.10083	-726.24542	-90.29783	582.50293	-498.06000	65.17105	587.67004	-510.06787	-30.38251	566.32489	383.66171	116.76536	560.40948	375.19821	
1765	17.640	-179.00635	20.28600	-398.21442	234.19429	22.97177	-477.34802	-122.01084	15.27512	156.13390	257.06839	25.91853	48.67936	31.67008	722.35492	-726.38824	-90.29063	582.91022	-499.45013	65.29345	587.94385	-511.19254	-30.60220	566.25787	382.28424	116.48354	560.66675	374.28873	
1766	17.650	-178.82443	20.30497	-398.35678	234.17354	22.81370	-477.42371	-121.99823	15.15733	155.96280	257.13425	25.87512	48.70950	31.78398	722.57245	-726.49701	-89.48893	583.11609	-500.29297	65.77409	588.35620	-512.17395	-30.89030	566.56525	381.55331	116.14358	560.75098	373.28250	
1767	17.660	-178.70439	20.45158	-398.55042	234.31149	22.81979	-477.33853	-121.91441	15.19773	155.91801	257.26947	25.90241	48.70895	31.67790	722.69696	-726.65442	-90.08012	584.09845	-501.90143	66.04556	588.65363	-512.98901	-30.96127	566.60846	380.45792	115.92525	561.09808	372.51929	
1768	17.670	-178.58478	20.53964	-398.70959	234.48515	22.79948	-477.24258	-121.99928	15.32191	155.81366	257.28967	25.91247	48.70217	31.63457	722.73889	-726.76459	-88.79265	583.72430	-502.45630	66.67551	588.91583	-514.14471	-31.18763	566.83325	379.53351	116.35164	561.14801	371.55728	
1769	17.680	-178.47382	20.60025	-398.84589	234.71313	22.68034	-477.20575	-121.97977	15.28278	155.74480	257.34808	25.91735	48.74873	31.43531	722.66681	-726.84741	-88.35588	583.90363	-503.35251	67.20652	588.94830	-514.77057	-31.31408	566.96997	378.18338	115.93031	561.31482	370.60876	
1770	17.690	-178.38925	20.58683	-398.97269	234.89366	22.42473	-477.30371	-122.00336	15.26346	155.66760	257.31100	25.93582	48.65966	31.19424	722.42084	-727.01123	-87.54445	583.96143	-504.51770	67.66020	589.03162	-516.12323	-31.64837	567.48975	377.39301	115.88876	561.53882	369.70447	
1771	17.700	-178.35097	20.57866	-399.03534	234.74655	22.13504	-477.52100	-122.02625	15.19177	155.53717	257.26019	25.92712	48.66293	31.06998	721.95648	-727.17975	-87.52230	584.25879	-505.76785	68.17147	589.03156	-516.88226	-31.60882	567.64380	376.34262	115.69895	561.79120	368.63977	
1772	17.710	-178.27679	20.55655	-399.13080	234.71449	21.99009	-477.68274	-122.05679	15.22122	155.39731	257.30515	25.93725	48.63051	31.28065	721.60461	-727.29492	-86.82148	584.26062	-506.79111	68.38602	589.06580	-518.09906	-31.30107	567.81317	375.28394	116.09088	561.95374	367.75656	
1773	17.720	-178.19446	20.55952	-399.24045	235.03571	22.43752	-477.81158	-122.03210	15.21965	155.27274	257.16028	26.24329	48.19587	31.61101	721.25983	-727.36475	-86.75820	584.64001	-507.48248	68.54265	589.25519	-518.94641	-30.86147	567.80859	374.25256	116.59397	562.01404	367.12845	
1774	17.730	-178.32726	20.45976	-399.24008	235.01329	22.24741	-477.98477	-122.10606	15.42626	155.33951	257.11200	26.36851	48.14868	31.83583	720.64203	-727.86847	-86.86823	584.60913	-508.55777	68.80410	589.15515	-519.77716	-30.59869	568.00415	373.46536	116.44338	561.83392	365.82016	
1775	17.740	-178.45860	20.33282	-399.26685	234.93144	22.17532	-478.17032	-122.05381	15.40509	155.30373	257.15619	26.30038	48.19490	32.62123	719.03033	-728.86829	-86.61948	584.61798	-509.21893	68.91479	589.08051	-520.51910	-30.12113	567.75739	372.80136	117.26398	561.37732	365.19745	
1776	17.750	-178.38206	20.24024	-399.34280	234.92148	22.13171	-478.27011	-121.94654	15.20526	155.26532	257.30280	26.17815	48.22173	32.23157	717.29858	-730.91187	-86.37877	584.78949	-509.60406	69.22424	589.28436	-521.04968	-29.58112	567.15112	372.22363	117.73595	560.78131	364.36133	
1777	17.760	-178.26280	20.15463	-399.46158	235.11055	22.16539	-477.86853	-121.92319	15.16247	155.24704	257.39688	26.10555	48.34159	32.10596	714.76111	-733.75244	-85.83969	584.93341	-509.83298	69.62244	589.44135	-521.37097	-28.93227	566.43079	371.89050	118.23134	560.16858	363.98782	
1778	17.770	-178.20033	20.19477	-399.46799	235.04515	21.85208	-478.05316	-121.88723	15.19579	155.25508	257.45895	26.05197	48.43966	31.57146	711.88208	-737.56592	-85.47250	585.35608	-510.24399	70.15176	589.50336	-521.65570	-28.63597	565.81598	371.57059	118.63620	559.15637	363.56256	
1779	17.780	-178.15187	20.27353	-399.45331	235.23160	21.67337	-478.17239	-121.89091	15.31644	155.29523	257.45224	26.04838	48.45884	30.85172	708.85114	-741.82959	-84.84026	585.28693	-510.51526	70.76871	589.43903	-521.83264	-27.82428	565.35382	371.35135	119.09287	558.92175	363.40173	
1780	17.790	-178.14616	20.25987	-399.47958	235.43773	21.70776	-478.11057	-121.74524	15.40800	155.34065	257.46198	26.00133	48.52983	29.66459	706.03748	-746.60028	-84.35323	584.94012	-510.68350	71.27757	588.87714	-522.03986	-27.13075	565.46350	371.29309	119.97517	558.72882	363.26648	
1781	17.800	-178.15916	20.16864	-399.46356	235.43077	21.68536	-478.21381	-121.74009	15.58991	155.35794	257.49792	25.99180	48.56397	29.16451	703.43622	-750.81140	-83.76083	584.28723	-510.81363	72.08739	587.94598	-522.23676	-26.33004	565.80237	371.20511	120.89642	558.86005	363.01089	
1782	17.810	-178.19250	20.04170	-399.48297	235.18008	21.42714	-478.31314	-121.57152	15.73964	155.27974	257.54767	26.01084	48.54991	28.72278	701.51611	-755.45215	-83.24696	583.23065	-510.85242	72.48476	586.92865	-522.59485	-25.39474	566.16071	371.05255	121.55374	559.18121	363.04822	
1783	17.820	-178.24440	19.90172	-399.42749	235.22499	21.20891	-478.36368	-121.35606	15.88130	155.25577	257.69855	25.98983	48.54672	29.10558	700.11725	-759.24982	-82.72899	582.25177	-511.07678	72.93665	585.55310	-522.80249	-23.75957	566.49255	370.74091	122.78403	559.54504	362.68631	
1784	17.830	-178.26840	19.87251	-399.39899	235.15590	21.05977	-478.60928	-121.13776	16.16822	155.24165	257.74445	25.96604	48.40704	29.44538	699.57587	-762.41766	-82.36938	580.89044	-511.29596	73.43826	583.91815	-522.72113	-22.78049	567.22644	370.63492	124.51981	559.96442	362.47696	
1785	17.840	-178.24057	19.87063	-399.35880	235.27991	21.03098	-478.55695	-120.93148	16.47353	155.21469	257.87155	25.88587	48.23109	30.34468	699.45135	-764.80634	-82.07555	580.01837	-511.62234	73.67099	582.67224	-523.16278	-21.40730	567.94470	370.27606	126.11446	560.24854	362.29031	
1786	17.850	-178.25587	19.88197	-399.22586	235.40898	20.88824	-478.52808	-120.82600	16.70272	155.12181	258.08044	25.81447	48.07598	31.50155	699.76886	-766.87958	-81.63092	578.83710	-511.85590	74.18912	581.45300	-523.51367	-20.01830	568.14343	369.95981	127.10896	560.49585	361.40335	
1787	17.860	-178.18280	19.68814	-399.20844	234.96690	20.57524	-478.74371	-120.75521	16.82244	155.02579	258.79535	25.93536	48.16831	33.18154	700.38763	-768.00598	-81.15327	577.74060	-512.17346	74.70336	580.10815	-524.10687	-18.56173	568.31915	369.51038	128.58984	560.70953	360.90814	
1788	17.870	-178.10979	19.53931	-399.11050	235.15558	20.45393	-478.65601	-120.64326	16.77166	155.02155	258.84671	25.91342	48.14264	34.42762	701.53723	-768.88995	-80.43616	577.11737	-512.54382	75.20440	579.33563	-524.72540	-17.48566	568.75598	369.25537	129.60793	560.68921	360.34531	
